<svg width="86" height="86" viewBox="0 0 86 86" fill="none" xmlns="http://www.w3.org/2000/svg">
<rect width="86" height="86" rx="43" fill="#12D72F"/>
<path d="M34.0001 55.5099L23.5901 45.0999C23.0291 44.5389 22.2683 44.2238 21.4751 44.2238C20.6818 44.2238 19.921 44.5389 19.3601 45.0999C18.7991 45.6608 18.484 46.4216 18.484 47.2149C18.484 47.6077 18.5614 47.9966 18.7117 48.3595C18.862 48.7224 19.0823 49.0521 19.3601 49.3299L31.9001 61.8699C33.0701 63.0399 34.9601 63.0399 36.1301 61.8699L67.8701 30.1299C68.431 29.5689 68.7461 28.8081 68.7461 28.0149C68.7461 27.2216 68.431 26.4608 67.8701 25.8999C67.3091 25.3389 66.5483 25.0238 65.7551 25.0238C64.9618 25.0238 64.201 25.3389 63.6401 25.8999L34.0001 55.5099Z" fill="white"/>
</svg>
