<svg width="86" height="86" viewBox="0 0 86 86" fill="none" xmlns="http://www.w3.org/2000/svg">
<g clip-path="url(#clip0_34_2)">
<mask id="mask0_34_2" style="mask-type:luminance" maskUnits="userSpaceOnUse" x="0" y="0" width="86" height="86">
<path d="M86 0H0V86H86V0Z" fill="white"/>
</mask>
<g mask="url(#mask0_34_2)">
<path d="M38.6699 7C40.5944 3.66667 45.4056 3.66666 47.3301 6.99999L84.5692 71.5C86.4937 74.8333 84.0881 79 80.2391 79H5.76089C1.91189 79 -0.493752 74.8333 1.43075 71.5L38.6699 7Z" fill="#F48618"/>
<path d="M46.8153 24.3636L46.2614 55.4503H40.3594L39.8054 24.3636H46.8153ZM43.321 68.4048C42.142 68.4048 41.1335 67.9929 40.2955 67.169C39.4574 66.331 39.0455 65.3224 39.0597 64.1435C39.0455 62.9787 39.4574 61.9844 40.2955 61.1605C41.1335 60.3224 42.142 59.9034 43.321 59.9034C44.4716 59.9034 45.4659 60.3224 46.304 61.1605C47.142 61.9844 47.5682 62.9787 47.5824 64.1435C47.5682 64.9247 47.3622 65.642 46.9645 66.2955C46.581 66.9347 46.0696 67.446 45.4304 67.8295C44.7912 68.2131 44.0881 68.4048 43.321 68.4048Z" fill="black"/>
</g>
</g>
<defs>
<clipPath id="clip0_34_2">
<rect width="86" height="86" fill="white"/>
</clipPath>
</defs>
</svg>
