<svg width="86" height="86" viewBox="0 0 86 86" fill="none" xmlns="http://www.w3.org/2000/svg">
<rect width="86" height="86" rx="43" fill="#C9120C"/>
<path fill-rule="evenodd" clip-rule="evenodd" d="M43 47.242L59.971 64.213C60.5368 64.7594 61.2946 65.0618 62.0812 65.055C62.8678 65.0481 63.6203 64.7326 64.1765 64.1764C64.7327 63.6202 65.0482 62.8678 65.055 62.0812C65.0619 61.2946 64.7595 60.5368 64.213 59.971L47.242 43L64.213 26.029C64.7595 25.4632 65.0619 24.7053 65.055 23.9188C65.0482 23.1322 64.7327 22.3797 64.1765 21.8235C63.6203 21.2673 62.8678 20.9518 62.0812 20.9449C61.2946 20.9381 60.5368 21.2405 59.971 21.787L43 38.758L26.029 21.787C25.4607 21.254 24.7073 20.9631 23.9282 20.9757C23.1492 20.9884 22.4056 21.3036 21.8548 21.8547C21.3041 22.4059 20.9894 23.1497 20.9773 23.9287C20.9652 24.7078 21.2567 25.461 21.79 26.029L38.758 43L21.787 59.971C21.5005 60.2477 21.2719 60.5787 21.1147 60.9447C20.9575 61.3108 20.8747 61.7044 20.8713 62.1028C20.8678 62.5011 20.9437 62.8961 21.0946 63.2648C21.2454 63.6335 21.4682 63.9685 21.7498 64.2501C22.0315 64.5318 22.3665 64.7546 22.7352 64.9054C23.1038 65.0563 23.4989 65.1322 23.8972 65.1287C24.2956 65.1253 24.6892 65.0425 25.0552 64.8853C25.4212 64.728 25.7523 64.4995 26.029 64.213L43 47.242Z" fill="white"/>
</svg>
